<svg xmlns="http://www.w3.org/2000/svg"  viewBox="0 0 48 48" width="48px" height="48px"><rect width="4" height="5" x="33" y="7.5" fill="#ffa000"/><rect width="6" height="2" x="32" y="6" fill="#ffc107"/><polygon fill="#6d4c41" points="44,36 44,42 37.586,42 31.586,36"/><polygon fill="#4e342e" points="33.603,38 44,38 44,40 35.586,40"/><polygon fill="#6d4c41" points="4,36 4,42 10.414,42 16.414,36"/><rect width="4" height="5" x="11" y="6.5" fill="#ffa000"/><rect width="6" height="2" x="10" y="5" fill="#ffc107"/><path fill="#6d4c41" d="M43.816,10H4.184C2.428,10,1,11.428,1,13.184v21.633C1,36.572,2.428,38,4.184,38h39.633	C45.572,38,47,36.572,47,34.816V13.184C47,11.428,45.572,10,43.816,10z"/><circle cx="13" cy="24" r="8" fill="#fafafa"/><path fill="#ffc107" d="M13,33c-4.963,0-9-4.037-9-9s4.037-9,9-9s9,4.037,9,9S17.963,33,13,33z M13,17c-3.859,0-7,3.141-7,7 s3.141,7,7,7s7-3.141,7-7S16.859,17,13,17z"/><circle cx="35" cy="24" r="8" fill="#fafafa"/><path fill="#ffc107" d="M35,33c-4.963,0-9-4.037-9-9s4.037-9,9-9s9,4.037,9,9S39.963,33,35,33z M35,17c-3.859,0-7,3.141-7,7 s3.141,7,7,7s7-3.141,7-7S38.859,17,35,17z"/><polygon fill="#455a64" points="14.293,26.707 12,24.414 12,20 14,20 14,23.586 15.707,25.293"/><g><polygon fill="#4e342e" points="14.414,38 4,38 4,40 12.414,40"/></g><g><polygon fill="#455a64" points="36,28 34,28 34,23.586 36.293,21.293 37.707,22.707 36,24.414"/></g></svg>